<svg xmlns="http://www.w3.org/2000/svg" width="60" height="54" viewBox="-279.5 417.5 60 54"><path fill="#2E80BF" d="M-279.5 417.5h60v54h-60z"/><path fill="#FFF" d="M-258.028 438.213v.059a4.418 4.418 0 01-1.443 3.438 5.512 5.512 0 01-3.951 1.383 5.122 5.122 0 01-2.208-.42 5.12 5.12 0 01-1.813-1.328 6.443 6.443 0 01-1.561-4.445v-2.588a6.437 6.437 0 011.561-4.444 5.093 5.093 0 014.02-1.759 5.697 5.697 0 013.951 1.314 4.403 4.403 0 011.423 3.486v.06h-1.876a3.237 3.237 0 00-.899-2.42 3.448 3.448 0 00-2.538-.89 3.112 3.112 0 00-2.628 1.334 5.39 5.39 0 00-.988 3.289v2.607a5.424 5.424 0 00.988 3.319 3.101 3.101 0 002.628 1.333 3.45 3.45 0 002.538-.889 3.242 3.242 0 00.899-2.439h1.897zm4.641-1.176v5.848h-1.976v-14.569h5.571a5.107 5.107 0 013.615 1.205 4.522 4.522 0 010 6.331 5.146 5.146 0 01-3.615 1.186h-3.595zm0-1.551h3.605a2.813 2.813 0 002.751-3.926 2.812 2.812 0 00-2.751-1.695h-3.605v5.621zm22.175 1.412a6.269 6.269 0 01-1.648 4.436 5.686 5.686 0 01-4.297 1.758 5.365 5.365 0 01-4.149-1.758 6.355 6.355 0 01-1.591-4.436v-2.588a6.359 6.359 0 011.591-4.435 5.337 5.337 0 014.149-1.769 5.637 5.637 0 014.297 1.769 6.266 6.266 0 011.648 4.435v2.588zm-1.975-2.607a4.94 4.94 0 00-1.087-3.279 3.571 3.571 0 00-2.894-1.283 3.307 3.307 0 00-2.746 1.284 5.081 5.081 0 00-.988 3.279v2.607a5.122 5.122 0 00.988 3.299 3.3 3.3 0 001.217.975c.479.223 1.002.33 1.529.311a3.616 3.616 0 002.904-1.275 4.985 4.985 0 001.077-3.31v-2.608zm-25.03 26.027h-1.976v-6.282h-6.915v6.282h-1.976v-14.224h1.976v6.421h6.915v-6.421h1.976v14.224zm9.799-12.81h.257a5.646 5.646 0 012.223.387 5.654 5.654 0 011.896 1.223 5.463 5.463 0 011.629 4.119 5.523 5.523 0 01-1.649 4.139 5.667 5.667 0 01-4.119 1.61h-.258v1.917h-1.876v-1.917h-.277a5.664 5.664 0 01-4.119-1.6 6.005 6.005 0 010-8.258c.541-.532 1.183-.95 1.889-1.229s1.461-.412 2.22-.391h.287v-1.977h1.976l-.079 1.977zm-2.203 1.511a3.605 3.605 0 00-2.855 1.155 5.277 5.277 0 000 6.174 3.593 3.593 0 002.855 1.136h.306v-8.465h-.306zm2.203 0v8.455h.276a3.562 3.562 0 002.825-1.146 5.194 5.194 0 000-6.174 3.6 3.6 0 00-2.825-1.136h-.276zm15.181 7.635h-5.927l-1.344 3.664h-1.975l5.502-14.224h1.648l5.414 14.224h-1.977l-1.341-3.664zm-5.363-1.61h4.78l-2.341-6.479h-.06l-2.379 6.479z"/></svg>